<svg xmlns="http://www.w3.org/2000/svg" viewBox="0 0 44 34"><defs><style>.cls-1{fill:#c2c2c2;}.cls-2{fill:#5d5d5d;}</style></defs><title>ic_glovo_off</title><g id="Capa_2" data-name="Capa 2"><g id="Capa_1-2" data-name="Capa 1"><rect class="cls-1" width="44" height="34" rx="4"/><path class="cls-2" d="M11.3,20.27c0,.35,0,.78,0,1.21a1,1,0,0,1-.45.68A5.15,5.15,0,0,1,7.2,23a4,4,0,0,1-3.51-3.36,4.27,4.27,0,0,1,1.28-4,4,4,0,0,1,2.39-1.08,4.69,4.69,0,0,1,3.14.7.79.79,0,0,1,.36,1,.72.72,0,0,1-1,.25A3.4,3.4,0,0,0,8.55,16,2.67,2.67,0,0,0,5.24,18a3.08,3.08,0,0,0,.49,2.67,2.49,2.49,0,0,0,1.86,1,3.35,3.35,0,0,0,2.14-.49.3.3,0,0,0,.17-.31c0-.36,0-.73,0-1.09,0-.21-.07-.26-.26-.25H8.3A.63.63,0,0,1,7.62,19a.68.68,0,0,1,.7-.65h2.17a.75.75,0,0,1,.81.81C11.31,19.48,11.3,19.84,11.3,20.27Z"/><path class="cls-2" d="M21.66,19.82a3.3,3.3,0,1,1-3.24-3.25A3.19,3.19,0,0,1,21.66,19.82Zm-5.15,0a1.22,1.22,0,0,0,0,.45,1.81,1.81,0,0,0,1.31,1.44,1.76,1.76,0,0,0,1.87-.52,2.09,2.09,0,0,0,.47-1.74,1.86,1.86,0,0,0-3.7.37Z"/><path class="cls-2" d="M35.24,19.83a3.3,3.3,0,1,1-3.18-3.26A3.2,3.2,0,0,1,35.24,19.83Zm-3.06,2a1.67,1.67,0,0,0,1-.45,2,2,0,0,0,.54-2.19,1.78,1.78,0,0,0-1.62-1.34,1.71,1.71,0,0,0-1.68.81,2.19,2.19,0,0,0-.29,1.55A1.94,1.94,0,0,0,32.18,21.82Z"/><path class="cls-2" d="M34.83,13.78a2.78,2.78,0,1,1,5.56-.08,3.39,3.39,0,0,1-.8,2.07c-.41.57-.81,1.14-1.21,1.72a1,1,0,0,1-1.54,0l-1.5-2.16A2.6,2.6,0,0,1,34.83,13.78Zm1.37-.06a1.42,1.42,0,0,0,.27.83l1,1.47c.09.12.12.13.21,0,.35-.5.71-1,1-1.5a1.27,1.27,0,0,0,.22-1,1.39,1.39,0,0,0-1.58-1.18A1.41,1.41,0,0,0,36.2,13.72Z"/><path class="cls-2" d="M25.2,21.2l1.53-3.95a.88.88,0,0,1,.49-.59.69.69,0,0,1,.75.2.7.7,0,0,1,.11.79l-1.23,2.84c-.27.64-.54,1.27-.82,1.9a1,1,0,0,1-.59.63.85.85,0,0,1-1.1-.52c-.33-.75-.65-1.5-1-2.25s-.72-1.67-1.08-2.49a.77.77,0,0,1,0-.86.7.7,0,0,1,1.22.18c.24.53.43,1.09.64,1.63l.93,2.4A.1.1,0,0,0,25.2,21.2Z"/><path class="cls-2" d="M14,18.65c0,1.22,0,2.43,0,3.65a.66.66,0,0,1-.53.68.71.71,0,0,1-.85-.46.66.66,0,0,1,0-.24V15A.71.71,0,1,1,14,15C14,16.21,14,17.43,14,18.65Z"/><path class="cls-2" d="M36.83,19.07a.75.75,0,0,1,.78-.77.77.77,0,1,1,0,1.54A.73.73,0,0,1,36.83,19.07Z"/></g></g></svg>