<svg xmlns="http://www.w3.org/2000/svg" viewBox="0 0 44 34"><defs><style>.cls-1{fill:#fd495c;}.cls-2{fill:#26cbc6;}.cls-3{fill:#fef7f8;}</style></defs><title>ic_izipay_on</title><g id="Capa_2" data-name="Capa 2"><g id="Capa_1-2" data-name="Capa 1"><rect class="cls-1" width="44" height="34" rx="4"/><path class="cls-2" d="M19.31,20c0,1,0,1.89,0,2.73s-.5.54-.87.54-.9.25-.9-.51c0-2.75,0-5.5,0-8.25,0-.2-.08-.53.27-.5s1.12-.31,1.4.19.33.19.52.07a2.77,2.77,0,0,1,3.19.08,3.64,3.64,0,0,1,1.19,4.4,3.09,3.09,0,0,1-3.41,1.94A3.82,3.82,0,0,1,19.31,20Zm3.28-2.68a1.67,1.67,0,0,0-1.66-1.85,1.71,1.71,0,0,0-1.72,1.81,1.71,1.71,0,0,0,1.64,1.81A1.66,1.66,0,0,0,22.59,17.29Z"/><path class="cls-2" d="M32.27,17.2c0,.88,0,1.75,0,2.63,0,.25.17.67-.26.68s-1,.29-1.41-.18c-.14-.19-.08-.41-.4-.18a2.74,2.74,0,0,1-3.47-.08,3.41,3.41,0,0,1-1.23-3.65,3.07,3.07,0,0,1,2.43-2.56,2.62,2.62,0,0,1,2,.32c.24.14.4.51.69-.1.17-.35,1-.16,1.43-.08s.18.48.18.73C32.29,15.55,32.27,16.38,32.27,17.2Zm-1.69.06a1.66,1.66,0,0,0-1.69-1.82,1.72,1.72,0,0,0-1.7,1.84,1.71,1.71,0,0,0,1.67,1.78A1.67,1.67,0,0,0,30.58,17.26Z"/><path class="cls-2" d="M40.54,14c-.51.93-.95,1.77-1.41,2.61-1,1.8-2,3.55-2.87,5.41a1.91,1.91,0,0,1-2.6,1.22c.63-1.16,1.25-2.33,1.92-3.47a1,1,0,0,0,0-1.16c-.84-1.47-1.64-3-2.45-4.47,1.53-.41,1.84-.28,2.53,1,.37.69.74,1.38,1.19,2.2.46-.88.91-1.6,1.22-2.37a1.35,1.35,0,0,1,1.66-1A5.06,5.06,0,0,0,40.54,14Z"/><path class="cls-3" d="M5.5,17.28c0,.91,0,1.82,0,2.72,0,.72-.47.59-.86.56s-1,.27-1-.53q0-2.76,0-5.52c0-.88.64-.49,1-.55s.85-.09.81.61C5.46,15.47,5.5,16.38,5.5,17.28Z"/><path class="cls-3" d="M14.22,17.2c0-.88,0-1.76,0-2.63-.05-.71.38-.66.8-.61s1-.33,1,.55c0,1.84,0,3.68,0,5.52,0,.86-.66.47-1.06.53s-.8.08-.77-.56C14.25,19.07,14.22,18.13,14.22,17.2Z"/><path class="cls-3" d="M9.18,19.06c1,0,1.91,0,2.79,0s.67.73.76,1.16c.13.63-.46.33-.7.33-1.38,0-2.77,0-4.15,0-.31,0-.66.05-.71-.39s-.54-.92,0-1.4.78-.75,1.19-1.08c.21-.17.43-.68.69-.33s.85.7.4,1.31Z"/><path class="cls-3" d="M10.64,15.49c-1.06,0-1.88,0-2.69,0s-.73-.77-.8-1.22S7.64,14,7.9,14c1.3,0,2.6,0,3.9,0,.28,0,.68-.13.73.35s.58,1,0,1.46c-.35.29-.64.65-1,.91s-.47.85-.87.44S9.74,16.24,10.64,15.49Z"/><path class="cls-3" d="M16.25,11.81a1.12,1.12,0,0,1-1.13,1.13A1.08,1.08,0,0,1,14,11.8a1.06,1.06,0,0,1,1.12-1.12A1.1,1.1,0,0,1,16.25,11.81Z"/><path class="cls-3" d="M4.54,12.94a1.08,1.08,0,0,1-1.07-1.17,1.07,1.07,0,0,1,1.15-1.09,1.09,1.09,0,0,1,1.09,1.16A1.12,1.12,0,0,1,4.54,12.94Z"/></g></g></svg>