<svg xmlns="http://www.w3.org/2000/svg" viewBox="0 0 44 34"><defs><style>.cls-1{fill:#c2c2c2;}.cls-2{fill:#5d5d5d;}</style></defs><title>ic_rappi_off</title><g id="Capa_2" data-name="Capa 2"><g id="Capa_1-2" data-name="Capa 1"><rect class="cls-1" width="44" height="34" rx="4"/><path class="cls-2" d="M33,22.53a6.4,6.4,0,0,1-1.32,2.87,5.36,5.36,0,0,1-3,1.91c-2.56.63-5.65-.57-6.69-2.84,0,0,0,0,0,0a4.81,4.81,0,0,1-2.2,2.21,6.41,6.41,0,0,1-2.78.75,5.47,5.47,0,0,1-4.28-1.64A6.28,6.28,0,0,1,11,22.5l.53.45a2.71,2.71,0,0,0,1.18.57,2.16,2.16,0,0,0,1.45-.25,7.07,7.07,0,0,0,1.21-.88A12.45,12.45,0,0,1,17.31,21a3,3,0,0,1,1.6-.4,3,3,0,0,1,1.37.44,14.41,14.41,0,0,1,1.5,1.1c.2.15.24.16.44,0A15.54,15.54,0,0,1,23.7,21a2.85,2.85,0,0,1,1.68-.46,3.1,3.1,0,0,1,1.41.46,11.85,11.85,0,0,1,1.82,1.34,6,6,0,0,0,1.33.95,2.11,2.11,0,0,0,2,0,5.26,5.26,0,0,0,.89-.66A.21.21,0,0,1,33,22.53Z"/><path class="cls-2" d="M31.3,13.78A2.9,2.9,0,0,0,32.79,12,15.35,15.35,0,0,1,34,9a1.11,1.11,0,0,1,1.65-.24.51.51,0,0,1,.14.66c-.3.7-.61,1.41-.88,2.13A4.7,4.7,0,0,0,34.54,13c0,.1,0,.24.07.29s.21,0,.29-.11a5.73,5.73,0,0,0,1-1.17,1,1,0,0,1,.13-.16.41.41,0,0,1,.49,0,.29.29,0,0,1,0,.41,10.35,10.35,0,0,1-1.5,2,4.32,4.32,0,0,1-1,.78,1.63,1.63,0,0,1-.89.16.8.8,0,0,1-.7-.63,2.14,2.14,0,0,1-.07-.43c0-.06,0-.13,0-.16s-.09,0-.13.07a6.21,6.21,0,0,1-1.5.86,4.34,4.34,0,0,1-2.08.29.85.85,0,0,1-.65-.38s-.05-.11-.11-.1-.05.07-.06.11c-.26,1-.56,1.89-.75,2.86a.46.46,0,0,1-.45.41,1.09,1.09,0,0,1-1.22-1.27c.07-.36.16-.71.26-1.07s.26-.89.38-1.33c0-.05.05-.1,0-.13s-.09,0-.13,0a5.32,5.32,0,0,1-2.13.84,4.25,4.25,0,0,1-1.07,0,.89.89,0,0,1-.64-.39s0-.1-.1-.09-.05.06-.06.1c-.26.94-.56,1.87-.74,2.82a.52.52,0,0,1-.59.47,1.15,1.15,0,0,1-1.12-1,1.64,1.64,0,0,1,.07-.54c.16-.68.35-1.34.54-2,0-.06.08-.13,0-.17s-.1,0-.14.08a2.57,2.57,0,0,1-1.16.67c-.57.1-1,0-1.16-.58-.06-.16-.14-.17-.27-.05a2.32,2.32,0,0,1-1.16.63,1.31,1.31,0,0,1-1.56-.81A2.83,2.83,0,0,1,14.5,13a6.81,6.81,0,0,1,1.28-3.49,3,3,0,0,1,1.81-1.24,1.68,1.68,0,0,1,.67,0,1,1,0,0,1,.77.63,1.72,1.72,0,0,0,.07.21c.06,0,.07-.06.09-.1a1.11,1.11,0,0,1,1.62-.22.52.52,0,0,1,.15.67c-.3.7-.61,1.41-.88,2.13a7,7,0,0,0-.34,1.19c0,.1,0,.2,0,.3s0,.2.08.24.17,0,.24-.09A2.56,2.56,0,0,0,21,11.92c.32-.95.67-1.88,1.08-2.8a1,1,0,0,1,1.73-.3c.09.1.13.07.22,0a2.34,2.34,0,0,1,1-.57,1.29,1.29,0,0,1,1.69,1.14,4.44,4.44,0,0,1-.21,2.11,7.3,7.3,0,0,1-1.09,2.2.39.39,0,0,0,0,.09,3,3,0,0,0,.9-.68,2.92,2.92,0,0,0,.58-1.1c.33-1,.73-1.94,1.1-2.9a1.06,1.06,0,0,1,1.72-.31c.1.12.15.1.25,0a2.28,2.28,0,0,1,1.21-.6,1.26,1.26,0,0,1,1.46,1.06,3.84,3.84,0,0,1-.12,2,7.51,7.51,0,0,1-1.18,2.49v0Zm-8.63-.23c0,.08,0,.16,0,.23s.1.19.24.1a1.48,1.48,0,0,0,.33-.33,8.22,8.22,0,0,0,1.46-3.26,1.6,1.6,0,0,0,0-.69c0-.16-.09-.18-.23-.09a1.57,1.57,0,0,0-.32.31,7.07,7.07,0,0,0-1.14,2.09A6.56,6.56,0,0,0,22.67,13.55Zm8-3.71V9.61c0-.17-.09-.2-.23-.1a1.67,1.67,0,0,0-.38.37,8.15,8.15,0,0,0-1.4,3.1,2,2,0,0,0-.06.8c0,.16.09.19.23.1a1,1,0,0,0,.28-.27,7.53,7.53,0,0,0,1.19-2.17A5.48,5.48,0,0,0,30.67,9.84ZM16.48,13.32a2.54,2.54,0,0,0,0,.43c0,.17.11.2.25.09a1.73,1.73,0,0,0,.38-.43,7.8,7.8,0,0,0,1.18-3.05,1.75,1.75,0,0,0,0-.79c0-.16-.11-.18-.24-.08a1.47,1.47,0,0,0-.22.21A5.84,5.84,0,0,0,17,11.24,6.26,6.26,0,0,0,16.48,13.32Z"/><path class="cls-2" d="M11.21,7.33a3.24,3.24,0,0,1,.71.06.37.37,0,0,1,.29.57c-.38.84-.7,1.7-1,2.56,0,.06-.09.15,0,.2s.14,0,.21-.06a3.78,3.78,0,0,0,1.75-1.74,2.25,2.25,0,0,0,.22-1.35,1.13,1.13,0,0,0-1.06-1A2.77,2.77,0,0,0,10,7.27,3.83,3.83,0,0,0,8.66,9.53a.77.77,0,0,0,0,.15.47.47,0,0,1-.62.49,1.11,1.11,0,0,1-.91-1.08,2.1,2.1,0,0,1,.4-1.26,4.66,4.66,0,0,1,2-1.74A5.48,5.48,0,0,1,14.1,6a2.55,2.55,0,0,1,1.26,1,2.23,2.23,0,0,1,0,2.17A3.93,3.93,0,0,1,13.53,11a6.52,6.52,0,0,1-1.09.47c-.12,0-.18.09-.17.22a5.89,5.89,0,0,0,.93,3.1,2.16,2.16,0,0,0,1.93,1,2.82,2.82,0,0,0,1.27-.39.45.45,0,0,1,.27-.08.35.35,0,0,1,.29.24.32.32,0,0,1-.09.37,5,5,0,0,1-2.55,1.34A2.8,2.8,0,0,1,11.46,16a5.79,5.79,0,0,1-.92-2.5c0-.11,0-.22,0-.33s0-.11-.05-.11-.06.06-.07.1c-.09.31-.17.63-.25,1s-.12.52-.17.78a.5.5,0,0,1-.31.37,1.26,1.26,0,0,1-1.54-.83,2.08,2.08,0,0,1,.06-.86,30.61,30.61,0,0,1,2-5.83.63.63,0,0,1,.56-.4Z"/><path class="cls-2" d="M36.9,6.58a1.31,1.31,0,0,1-1.32,1.33A1.33,1.33,0,1,1,36.9,6.58Z"/><path class="cls-2" d="M31.3,13.78h0v0Z"/></g></g></svg>