<svg xmlns="http://www.w3.org/2000/svg" viewBox="0 0 44 34"><defs><style>.cls-1{fill:#000101;}.cls-2{fill:#40c04c;}.cls-3{fill:#f4f5f6;}</style></defs><title>ic_ubereats_on</title><g id="Capa_2" data-name="Capa 2"><g id="Capa_1-2" data-name="Capa 1"><rect class="cls-1" width="44" height="34" rx="4"/><path class="cls-2" d="M9.54,22.11c0-1.19,0-2.38,0-3.58,0-.44.14-.57.57-.56,1.6,0,3.2,0,4.8,0,.65,0,.58.34.6.76s-.05.75-.64.72c-1-.05-2.1,0-3.15,0-.36,0-.49.11-.51.49-.07,1.52-.08,1.52,1.4,1.52.77,0,1.53,0,2.29,0s.46.42.46.74.15.74-.47.72c-1.05,0-2.1,0-3.15,0-.41,0-.52.14-.53.54,0,1.48,0,1.48,1.43,1.48.77,0,1.54.05,2.3,0s.54.39.57.78,0,.7-.6.68c-1.6,0-3.2,0-4.8,0-.43,0-.58-.12-.57-.57C9.55,24.55,9.54,23.33,9.54,22.11Z"/><path class="cls-2" d="M22.9,23.17c0,.89,0,1.77,0,2.65,0,.38-.14.56-.5.48s-1,.33-1.22-.36c-.06-.13-.37.12-.56.2a3.1,3.1,0,0,1-3.53-.55,3,3,0,0,1-1-3.37,3.4,3.4,0,0,1,4.37-2c.31.12.55.37,1,0,.23-.2.79-.06,1.19,0s.22.31.23.51C22.91,21.5,22.9,22.34,22.9,23.17Zm-3.47-1.8a1.89,1.89,0,0,0-1.85,1.82,1.84,1.84,0,0,0,3.68,0A1.87,1.87,0,0,0,19.43,21.37Z"/><path class="cls-3" d="M18.59,15.33a1,1,0,0,1-1.23.55c-.17-.09-.12-.24-.12-.37,0-2.51,0-5,0-7.52,0-.58.35-.42.66-.44s.65,0,.62.49c-.05.78,0,1.56,0,2.37,2.16-1,3.8-.81,4.79.57a3.3,3.3,0,0,1-.43,4.19A3.1,3.1,0,0,1,18.59,15.33Zm4-2.42a2,2,0,0,0-2-2.06,2.06,2.06,0,1,0,2,2.06Z"/><path class="cls-3" d="M15,15.23c-1.86,1.16-3.38,1.08-4.52-.16a3.39,3.39,0,0,1-.92-2.27c0-1.6,0-3.21,0-4.81,0-.65.44-.4.74-.43s.65-.09.63.46c0,1.39,0,2.78,0,4.16a6.63,6.63,0,0,0,.07,1,1.87,1.87,0,0,0,1.86,1.66,2,2,0,0,0,2-1.56,5.28,5.28,0,0,0,.11-1.13c0-1.27.06-2.54,0-3.8,0-.77.27-.87.89-.81.31,0,.41.13.41.43,0,2.51,0,5,0,7.53,0,.48-.3.39-.57.39S14.77,16,15,15.23Z"/><path class="cls-2" d="M31.47,26.47a3,3,0,0,1-2.84-1.57c-.21-.44-.2-.7.42-.67a1.51,1.51,0,0,1,1.38.51,1.85,1.85,0,0,0,2,.25c.17-.1.33-.22.32-.44s-.17-.34-.36-.39c-.41-.1-.83-.2-1.25-.28a5.47,5.47,0,0,1-1.64-.5,1.66,1.66,0,0,1-.42-2.71,3.54,3.54,0,0,1,4.79.25,2.39,2.39,0,0,1,.37.77c.09.3,0,.47-.32.44-.53,0-1.08.15-1.53-.45a1.42,1.42,0,0,0-1.72-.31c-.17.07-.36.18-.37.4s.17.33.34.42a5.16,5.16,0,0,0,1.59.4,3.78,3.78,0,0,1,1.43.44A1.58,1.58,0,0,1,34,25.59,3.44,3.44,0,0,1,31.47,26.47Z"/><path class="cls-3" d="M28.13,13.29c-.64,0-1.29,0-1.93,0s-.51.2-.31.57a1.93,1.93,0,0,0,3.13.56c.49-.44.74-.16,1,.13s-.07.58-.27.76a3.53,3.53,0,0,1-4.31,0,3.25,3.25,0,0,1-.72-4,3.33,3.33,0,0,1,3.91-1.43A3.14,3.14,0,0,1,30.58,13c0,.33-.22.31-.44.31Zm-.68-2.47a1.8,1.8,0,0,0-1.64,1.06c-.14.33-.06.42.28.42.73,0,1.48,0,2.21,0,.31,0,.8.22.89-.14s-.26-.74-.6-1A1.83,1.83,0,0,0,27.45,10.82Z"/><path class="cls-2" d="M24.72,23.37c0-.29,0-.57,0-.86.05-.6,0-1.05-.83-1-.6.06-.29-.51-.34-.81s-.08-.64.38-.57c.7.11.83-.23.8-.84-.05-.91.49-1.26,1.35-1a.29.29,0,0,1,.22.31v.57c0,1-.12.9.93.91.77,0,1.11.51.82,1.21-.13.32-.4.2-.61.2-1.14,0-1.14,0-1.14,1.14v1.14c0,.94.08,1,1,1,.59,0,.79.14.77.75s-.12.73-.71.74C25.3,26.35,24.54,26.19,24.72,23.37Z"/><path class="cls-3" d="M31.35,12.82c0-.84,0-1.67,0-2.51,0-.19-.1-.49.24-.47s.86-.22,1,.13.26.19.44.09a2,2,0,0,1,.51-.23c1.09-.23.94-.17,1,.89,0,.3-.19.25-.38.27-1.15.12-1.47.48-1.48,1.66,0,.91,0,1.81,0,2.72,0,.55-.23.56-.63.55s-.7.07-.66-.53C31.4,14.54,31.35,13.68,31.35,12.82Z"/></g></g></svg>