<svg xmlns="http://www.w3.org/2000/svg" viewBox="0 0 44 34"><defs><style>.cls-1{fill:#c2c2c2;}.cls-2{fill:#5d5d5d;}.cls-3{fill:#2b2b2b;}</style></defs><title>ic_vendemas_off</title><g id="Capa_2" data-name="Capa 2"><g id="Capa_1-2" data-name="Capa 1"><rect class="cls-1" width="37.79" height="34" rx="4"/><rect class="cls-2" x="2.7" width="37.79" height="34" rx="4"/><rect class="cls-3" x="6.21" width="37.79" height="34" rx="4"/><path class="cls-1" d="M21.12,19.81a2,2,0,0,1,2.95,0c.23.18.27,0,.36-.07A2.12,2.12,0,0,1,26,19.16a1.44,1.44,0,0,1,1.58,1.31,27.18,27.18,0,0,1,.08,3.83c0,.23-.12.34-.34.34h-.27c-1.06,0-1.06,0-1.06-1,0-.71,0-1.42,0-2.13,0-.51-.1-1-.77-1s-.85.45-.85,1c0,.8,0,1.6,0,2.4,0,.56-.19.75-.72.68a2.57,2.57,0,0,0-.48,0c-.36,0-.48-.13-.47-.48,0-.9,0-1.79,0-2.68,0-.43,0-.86-.67-.86s-.93.3-.94.88c0,.85,0,1.7,0,2.54,0,.44-.11.65-.58.6a2.53,2.53,0,0,0-.55,0c-.41,0-.56-.13-.55-.55,0-1.35,0-2.7,0-4.05,0-.27-.2-.67.3-.77C20.44,19.14,20.87,19.29,21.12,19.81Z"/><path class="cls-1" d="M30.87,11.47c0-.61,0-1.13,0-1.65s.12-.64.58-.6a4,4,0,0,0,.69,0c.32,0,.46.12.46.44,0,2.1,0,4.21,0,6.31,0,.32-.15.5-.46.43s-1.06.35-1.2-.52a2.8,2.8,0,0,1-1.2.61,2.12,2.12,0,0,1-2.63-1.76,4.52,4.52,0,0,1,0-2,2.18,2.18,0,0,1,3.5-1.48ZM28.73,13.9a4.14,4.14,0,0,0,.13.7.72.72,0,0,0,.82.58c.49-.08,1-.15,1.15-.82a2.07,2.07,0,0,0-.47-2,.8.8,0,0,0-.46-.09C29,12.3,28.73,12.62,28.73,13.9Z"/><path class="cls-1" d="M26.37,14.27a13.81,13.81,0,0,0,0,1.44c.06.6-.2.79-.75.71a1,1,0,0,0-.34,0c-.48.06-.64-.15-.62-.63,0-.82,0-1.65,0-2.47,0-.54-.12-1-.76-1a.92.92,0,0,0-1,1,20.52,20.52,0,0,0,0,2.48c.06.82-.47.63-.93.66s-.8,0-.77-.68c.05-1.25,0-2.51,0-3.77a.89.89,0,0,1,1.45-.83.6.6,0,0,0,.65,0,3.49,3.49,0,0,1,1.2-.26,1.61,1.61,0,0,1,1.81,1.64c0,.56,0,1.14,0,1.71Z"/><path class="cls-1" d="M33.41,22.59c0,.48,0,1,0,1.44,0,.23.08.6-.27.59s-1,.31-1.24-.22c-.14-.28-.18-.25-.4-.09a2.41,2.41,0,0,1-2,.37,1.4,1.4,0,0,1-1.23-1.3,1.54,1.54,0,0,1,1.12-1.74,9.31,9.31,0,0,1,1.82-.28c.19,0,.52.15.56-.2a.62.62,0,0,0-.5-.66,2.68,2.68,0,0,0-1.68.11c-.47.16-.68.07-.84-.43s0-.63.39-.75A5.48,5.48,0,0,1,32,19.27a1.66,1.66,0,0,1,1.44,1.67c0,.55,0,1.1,0,1.65Zm-2.14-.31c-.94,0-1.41.26-1.39.76s.37.62.8.63a1,1,0,0,0,1.09-1.05C31.78,22.19,31.52,22.27,31.27,22.28Z"/><path class="cls-1" d="M18.59,14.29c-.44,0-.87,0-1.31,0s-.4.18-.23.45a1.2,1.2,0,0,0,.9.56,2.64,2.64,0,0,0,1.42-.14c.37-.16.59-.17.77.29s0,.66-.42.8a4.44,4.44,0,0,1-2.16.23,2.41,2.41,0,0,1-2.19-1.72A3,3,0,0,1,16,11.63a2.78,2.78,0,0,1,3-.53A2.57,2.57,0,0,1,20.44,14c-.08.26-.28.26-.48.26Zm-.73-.95a2.8,2.8,0,0,0,.41,0c.23,0,.58.16.66-.15a.85.85,0,0,0-.36-.9,1.14,1.14,0,0,0-1.44.15.91.91,0,0,0-.27.75c.1.32.44.09.66.15A1.93,1.93,0,0,0,17.86,13.34Z"/><path class="cls-1" d="M36.53,14.29H35.3c-.15,0-.35-.08-.44.09s.08.36.19.48a1.93,1.93,0,0,0,2.24.28c.55-.21.67,0,.8.46a.41.41,0,0,1-.29.58,4,4,0,0,1-3.33,0,2.47,2.47,0,0,1-1.33-2.51,2.45,2.45,0,0,1,1.41-2.46,2.8,2.8,0,0,1,2.93.26,2.7,2.7,0,0,1,.9,2.47c0,.31-.22.37-.47.37Zm-.75-.95a2.8,2.8,0,0,0,.41,0c.23-.05.57.16.66-.15a.85.85,0,0,0-.32-.86,1.13,1.13,0,0,0-1.49.11.87.87,0,0,0-.26.75c.09.31.43.1.66.15A1.93,1.93,0,0,0,35.78,13.34Z"/><path class="cls-1" d="M12.43,14.65c.36-1.18.65-2.15,1-3.11a1.43,1.43,0,0,1,1.67-.45c.16.15,0,.29,0,.43L13.49,16a.58.58,0,0,1-.61.43c-1.3.07-1.3.08-1.73-1.15s-.87-2.45-1.32-3.68c-.14-.4-.08-.57.4-.58,1.1,0,1.1,0,1.4,1C11.88,12.82,12.12,13.64,12.43,14.65Z"/><path class="cls-1" d="M36.06,24.78c-.41-.06-.87-.11-1.31-.21s-.69-.11-.53-.66.34-.65.82-.48a2.49,2.49,0,0,0,1.15.09c.26,0,.54-.06.59-.36s-.2-.43-.44-.53c-.4-.16-.82-.29-1.21-.47a1.47,1.47,0,0,1-1-1.58,1.45,1.45,0,0,1,1.22-1.31,4.64,4.64,0,0,1,2.37.07c.31.09.54.2.39.63s-.19.68-.68.51a2.51,2.51,0,0,0-.95-.11c-.28,0-.59,0-.68.33s.23.46.48.56.73.28,1.08.44a1.46,1.46,0,0,1,1,1.73c-.09.66-.53,1.06-1.38,1.22C36.74,24.71,36.42,24.74,36.06,24.78Z"/><path class="cls-1" d="M30.77,18.66c-.48.07-.51-.16-.28-.61a1.5,1.5,0,0,1,1.51-.8c.11,0,.53.13.29.38C31.88,18.05,31.59,18.68,30.77,18.66Z"/></g></g></svg>